<svg xmlns="http://www.w3.org/2000/svg" xmlns:xlink="http://www.w3.org/1999/xlink" viewBox="0 0 145.71 132.19"><defs><style>.cls-1{fill:none;}.cls-2{clip-path:url(#clip-path);}.cls-3,.cls-8{fill:#fff;}.cls-3{opacity:0.6;}.cls-4{fill:url(#Безымянный_градиент_87);}.cls-5{fill:url(#Безымянный_градиент_191);}.cls-6{fill:url(#Безымянный_градиент_194);}.cls-7{opacity:0.3;fill:url(#Безымянный_градиент_51);}.cls-8{opacity:0.4;}.cls-9{fill:url(#Безымянный_градиент_181);}</style><clipPath id="clip-path"><path class="cls-1" d="M0,107.36V23.8a17.92,17.92,0,0,1,.48-4.2c1.3-5.51,6-18,21.52-19.41,11-1,14.65,2.64,18,6,9,9,20.61,37.08,33,37,12.58-.09,23.23-30.08,33-38,3.44-2.79,10-6,17-5,10.08,1.44,15.7,7,18.71,12.23A25.36,25.36,0,0,1,145,25.23l0,82.68a22.39,22.39,0,0,1-2.43,10.29c-2.87,5.56-8.57,13-18.57,13-9.44,0-15.1-4.24-18.43-8.71A23.76,23.76,0,0,1,101,108.24l-1-4H44l-.1,2.94a24.88,24.88,0,0,1-5.32,16.13A20.43,20.43,0,0,1,22,131.19a20.43,20.43,0,0,1-16.58-7.93A25.36,25.36,0,0,1,0,107.36Z"/></clipPath><linearGradient id="Безымянный_градиент_87" x1="72.5" y1="1" x2="72.5" y2="132.19" gradientUnits="userSpaceOnUse"><stop offset="0" stop-color="#2a5bff"/><stop offset="1" stop-color="#060094"/></linearGradient><linearGradient id="Безымянный_градиент_191" x1="72.5" y1="91.19" x2="72.5" y2="62.43" gradientUnits="userSpaceOnUse"><stop offset="0" stop-color="#2a4bdd"/><stop offset="1" stop-color="#060094"/></linearGradient><linearGradient id="Безымянный_градиент_194" x1="72.5" y1="54.59" x2="72.5" y2="91.19" gradientUnits="userSpaceOnUse"><stop offset="0" stop-color="#06007f"/><stop offset="1" stop-color="#060094"/></linearGradient><linearGradient id="Безымянный_градиент_51" y1="61.19" x2="145.71" y2="61.19" gradientUnits="userSpaceOnUse"><stop offset="0" stop-color="#fff"/><stop offset="0.5" stop-color="#e1e7ff"/><stop offset="1" stop-color="#fff"/></linearGradient><linearGradient id="Безымянный_градиент_181" y1="62.19" x2="145.71" y2="62.19" gradientUnits="userSpaceOnUse"><stop offset="0" stop-color="#2a5bff"/><stop offset="0.5" stop-color="#060094"/><stop offset="1" stop-color="#2a5bff"/></linearGradient></defs><title>Ресурс 1</title><g id="Слой_2" data-name="Слой 2"><g id="Слой_1-2" data-name="Слой 1"><g id="logo_on_blue" data-name="logo on blue"><g class="cls-2"><path class="cls-3" d="M10,107.36,0,23.8a17.92,17.92,0,0,1,.48-4.2c1.3-5.51,6-18,21.52-19.41,11-1,14.65,2.64,18,6,9,9,20.61,37.08,33,37,12.58-.09,23.23-30.08,33-38,3.44-2.79,10-6,17-5,10.08,1.44,15.7,7,18.71,12.23A25.36,25.36,0,0,1,145,25.23l-1,82.68c0,3.57.21,7.12-1.43,10.29-2.87,5.56-8.57,13-18.57,13-9.44,0-15.1-4.24-18.43-8.71-3.06-4.1-3.57-9.14-3.57-14.24l-1-36H43l-.1,34.94c.12,5.83-.67,11.59-4.32,16.13A20.43,20.43,0,0,1,22,131.19a20.43,20.43,0,0,1-16.58-7.93C1.82,118.78,10,113.11,10,107.36Z"/><path class="cls-4" d="M0,108.36V24.8a17.92,17.92,0,0,1,.48-4.2c1.3-5.51,6-18,21.52-19.41,11-1,14.65,2.64,18,6,9,9,20.61,37.08,33,37,12.58-.09,23.23-30.08,33-38,3.44-2.79,10-6,17-5,10.08,1.44,15.7,7,18.71,12.23A25.36,25.36,0,0,1,145,26.23l0,82.68a22.39,22.39,0,0,1-2.43,10.29c-2.87,5.56-8.57,13-18.57,13-9.44,0-15.1-4.24-18.43-8.71A23.76,23.76,0,0,1,101,109.24v-36l-58-13,.9,47.94a24.88,24.88,0,0,1-5.32,16.13A20.43,20.43,0,0,1,22,132.19a20.43,20.43,0,0,1-16.58-7.93A25.36,25.36,0,0,1,0,108.36Z"/><path id="middle_b" data-name="middle b" class="cls-5" d="M0,76.19c22.07-14.94,57.58,15,73,15,21,0,48.22-29.71,72-16v-10c-33-12-31,19-72,19-39,0-41.5-30.5-73-18Z"/><path id="middle_t" data-name="middle t" class="cls-6" d="M0,67.19c22.07-14.94,57.58,24,73,24,21,0,45.5-37.5,72-25v-9c-33-12-31,27-72,27-39,0-40-40-73-27Z"/><path class="cls-7" d="M0,59.19s7.18-5,10-5c20,0,37,42,63,41s43.18-38.46,61-41c3.5-.5,11.71,4.5,11.71,4.5v-12S140,28,121,27.19c-24-1-25,36-48,36-25,0-24-37.74-50-35C4,30.19.05,46.69.05,46.69Z"/><path class="cls-8" d="M0,61.19s4.5-5.5,10-5c19.92,1.81,37,42,63,41s43-39.81,61-41a14.67,14.67,0,0,1,11.71,4.5v-12S140,30,121,29.19c-24-1-25,37-48,37-25,0-24-38.74-50-36C4,32.19.05,48.69.05,48.69Z"/><path class="cls-9" d="M0,60.19s4.5-5.5,10-5c19.92,1.81,37,42,63,41s43-39.81,61-41a14.67,14.67,0,0,1,11.71,4.5v-12S140,29,121,28.19c-24-1-25,37-48,37-25,0-24-38.74-50-36C4,31.19.05,47.69.05,47.69Z"/></g></g></g></g></svg>